<svg width="420" height="560" viewBox="0 0 420 560" fill="none" xmlns="http://www.w3.org/2000/svg">
  <defs>
    <linearGradient id="conBg" x1="20" y1="20" x2="400" y2="540" gradientUnits="userSpaceOnUse">
      <stop stop-color="#281814"/>
      <stop offset="0.54" stop-color="#5E2C18"/>
      <stop offset="1" stop-color="#2E2618"/>
    </linearGradient>
  </defs>

  <rect x="8" y="8" width="404" height="544" rx="32" fill="url(#conBg)"/>
  <rect x="28" y="30" width="82" height="34" rx="17" fill="#FFF1E8" fill-opacity="0.16"/>
  <text x="48" y="53" fill="#FFB469" font-size="18" font-weight="700" font-family="Arial, Helvetica, sans-serif">04</text>
  <text x="32" y="116" fill="#FFF1E8" font-size="48" font-weight="700" font-family="Arial, Helvetica, sans-serif">CONCENTRATES</text>
  <text x="32" y="152" fill="#FAD8B5" font-size="22" font-weight="400" font-family="Arial, Helvetica, sans-serif">Sauces, wax and sticky staples.</text>

  <g transform="translate(62 184)">
    <rect x="62" y="184" width="236" height="118" rx="34" fill="#1A1210"/>
    <rect x="92" y="210" width="176" height="30" rx="15" fill="#FFF1E8" fill-opacity="0.86"/>
    <rect x="92" y="252" width="132" height="18" rx="9" fill="#FFB34C"/>

    <path d="M82 80C112 48 162 30 220 30C250 54 268 86 274 132C236 160 186 174 126 174C96 152 80 120 82 80Z" fill="#FFD447"/>
    <path d="M128 94C144 74 176 62 220 62C232 78 240 96 240 122C210 142 178 152 142 150C130 136 124 118 128 94Z" fill="#FFF1E8" fill-opacity="0.88"/>
    <path d="M236 54C292 72 330 118 350 188" stroke="#F15A24" stroke-width="18" stroke-linecap="round"/>
    <circle cx="352" cy="190" r="22" fill="#FFF1E8"/>
    <circle cx="352" cy="190" r="10" fill="#F15A24"/>
  </g>

  <rect x="32" y="478" width="252" height="46" rx="23" fill="#F15A24"/>
  <text x="62" y="508" fill="#FFF1E8" font-size="22" font-weight="700" font-family="Arial, Helvetica, sans-serif">SHOP CONCENTRATES</text>
</svg>
