<svg width="420" height="560" viewBox="0 0 420 560" fill="none" xmlns="http://www.w3.org/2000/svg">
  <defs>
    <linearGradient id="preBg" x1="30" y1="20" x2="390" y2="540" gradientUnits="userSpaceOnUse">
      <stop stop-color="#1F1715"/>
      <stop offset="0.6" stop-color="#2B201C"/>
      <stop offset="1" stop-color="#70421A"/>
    </linearGradient>
  </defs>

  <rect x="8" y="8" width="404" height="544" rx="32" fill="url(#preBg)"/>
  <rect x="28" y="30" width="82" height="34" rx="17" fill="#FFF1E8" fill-opacity="0.16"/>
  <text x="48" y="53" fill="#FFB469" font-size="18" font-weight="700" font-family="Arial, Helvetica, sans-serif">03</text>
  <text x="32" y="116" fill="#FFF1E8" font-size="54" font-weight="700" font-family="Arial, Helvetica, sans-serif">PREROLLS</text>
  <text x="32" y="152" fill="#FAD8B5" font-size="22" font-weight="400" font-family="Arial, Helvetica, sans-serif">Ready-to-go heat for every session.</text>

  <g transform="translate(68 176)">
    <rect x="40" y="182" width="216" height="124" rx="34" fill="#1A1311"/>
    <rect x="62" y="206" width="174" height="32" rx="16" fill="#FFF1E8" fill-opacity="0.88"/>
    <rect x="62" y="252" width="134" height="20" rx="10" fill="#FFB34C"/>

    <rect x="24" y="44" width="50" height="212" rx="25" transform="rotate(18 24 44)" fill="#FFF1E8"/>
    <rect x="58" y="54" width="16" height="212" rx="8" transform="rotate(18 58 54)" fill="#F15A24"/>

    <rect x="118" y="20" width="50" height="236" rx="25" transform="rotate(14 118 20)" fill="#FFD447"/>
    <rect x="152" y="34" width="16" height="226" rx="8" transform="rotate(14 152 34)" fill="#F15A24"/>

    <rect x="206" y="52" width="50" height="212" rx="25" transform="rotate(16 206 52)" fill="#FFF1E8"/>
    <rect x="240" y="64" width="16" height="208" rx="8" transform="rotate(16 240 64)" fill="#F15A24"/>
  </g>

  <rect x="32" y="478" width="198" height="46" rx="23" fill="#F15A24"/>
  <text x="63" y="508" fill="#FFF1E8" font-size="22" font-weight="700" font-family="Arial, Helvetica, sans-serif">SHOP PREROLLS</text>
</svg>
